# xmcd
#
# Track frame offsets:
#	150
#	14817
#	30366
#	48238
#	69797
#	86758
#	101331
#	119238
#	131119
#	147767
#	162977
#	177464
#	190395
#	206600
#	220407
#	235952
#	250439
#	265263
#	277892
#	291315
#	314244
#
# Disc length: 4536 seconds
#
# Revision: 0
# Processed by: cddbd v1.5.1PL0 Copyright (c) Steve Scherf et al.
# Submitted via: dBpowerAMP V4.0
#
DISCID=4d11b615
DTITLE=Nenhum artista - Nenhum título
DYEAR=1900
DGENRE=Desconhecido
TTITLE0=Faixa de Audio 01
TTITLE1=Faixa de Audio 02
TTITLE2=Faixa de Audio 03
TTITLE3=Faixa de Audio 04
TTITLE4=Faixa de Audio 05
TTITLE5=Faixa de Audio 06
TTITLE6=Faixa de Audio 07
TTITLE7=Faixa de Audio 08
TTITLE8=Faixa de Audio 09
TTITLE9=Faixa de Audio 10
TTITLE10=Faixa de Audio 11
TTITLE11=Faixa de Audio 12
TTITLE12=Faixa de Audio 13
TTITLE13=Faixa de Audio 14
TTITLE14=Faixa de Audio 15
TTITLE15=Faixa de Audio 16
TTITLE16=Faixa de Audio 17
TTITLE17=Faixa de Audio 18
TTITLE18=Faixa de Audio 19
TTITLE19=Faixa de Audio 20
TTITLE20=Faixa de Audio 21
EXTD=
EXTT0=
EXTT1=
EXTT2=
EXTT3=
EXTT4=
EXTT5=
EXTT6=
EXTT7=
EXTT8=
EXTT9=
EXTT10=
EXTT11=
EXTT12=
EXTT13=
EXTT14=
EXTT15=
EXTT16=
EXTT17=
EXTT18=
EXTT19=
EXTT20=
PLAYORDER=
